<svg width="32" height="32" viewBox="0 0 32 32" fill="none" xmlns="http://www.w3.org/2000/svg">
  <defs>
    <linearGradient id="musicGradient" x1="0%" y1="0%" x2="100%" y2="100%">
      <stop offset="0%" style="stop-color:#00D4FF;stop-opacity:1" />
      <stop offset="50%" style="stop-color:#FF6B9D;stop-opacity:1" />
      <stop offset="100%" style="stop-color:#8B5CF6;stop-opacity:1" />
    </linearGradient>
  </defs>
  
  <!-- Background circle -->
  <circle cx="16" cy="16" r="15" fill="url(#musicGradient)" stroke="#1a1a1a" stroke-width="2"/>
  
  <!-- Music note -->
  <path d="M12 8v12c0 2.21-1.79 4-4 4s-4-1.79-4-4 1.79-4 4-4c.74 0 1.44.2 2.04.55L12 8z" fill="white"/>
  <path d="M20 6v14c0 2.21-1.79 4-4 4s-4-1.79-4-4 1.79-4 4-4c.74 0 1.44.2 2.04.55L20 6z" fill="white"/>
  
  <!-- Note stem -->
  <rect x="19" y="6" width="2" height="8" fill="white"/>
  <rect x="11" y="8" width="2" height="6" fill="white"/>
</svg>